<svg xmlns="http://www.w3.org/2000/svg" style="display: none;">

<!-- главное очертание ТЦ  -->
<symbol id="main-block">
<path d="M590.5 1.5L1.5 1L22 201.5L141.5 202.5H155.5H172.5H187.5V194H204.5C209.847 250.929 219.899 278.077 250.5 318L271.5 339C317.929 373.058 346.064 381.159 398.169 385.566H590.5V1.5Z" stroke="black"/>
</symbol>

<!-- 1 -->
<symbol id="block-1">
<path d="M124 86.5H93.5001V135.5H75.3221L60.4553 168.207L17.4524 168.5L0.552826 0.499994L72.5001 0.499969V38.5H124M123.5 38V86.5" stroke="black"/>
</symbol>

<!-- 2 -->
<symbol id="block-2">
<path d="M0.5 0.5L0.500003 21.5H12.5V0.5H0.5Z" stroke="black"/>
</symbol>

<!-- 4 -->
<symbol id="block-4">
<path d="M61.5 1.83559L62 51H29.5V25.9043H0.500001V1.33557L62 1.33559" stroke="black"/>
</symbol>

<!-- 3 -->
<symbol id="block-3">
<path d="M61.5 36.5H0.5V0.500015H61.5V36.5Z" stroke="black"/>
</symbol>

<!-- 5 -->
<symbol id="block-5">
<path d="M46.5 30.5H0.5L0.499996 0.5H17.4979V4.5H46.5V30.5Z" stroke="black"/>
</symbol>

<!-- 6 -->
<symbol id="block-6">
<path d="M0 86.5H61.5V0.5H24.5618L24.3871 39.3309L0.00363761 39.5M0.500004 39V87" stroke="black"/>
</symbol>

<!-- 7 -->
<symbol id="block-7">
<path d="M76.5 40.9214V0.5H0.499998V86.5H42.5V74.2113L76.5 40.9214Z" stroke="black"/>
</symbol>

<!-- 8 -->
<symbol id="block-8">
<path d="M45.1872 1.45465H86.5V75.4246H0.5V33.968L12.6367 34.1216L45.1872 1.45465Z" stroke="black"/>
</symbol>

<!-- 26 -->
<symbol id="block-26">
<path d="M0.5 61.5475L42.5 61.5981V0.5H0.5V61.5475Z" stroke="black"/>
</symbol>

<!-- 34 -->
<symbol id="block-34">
<path d="M45.5 0.5H0.5V86H88.5V43.5H77L45.5 12.5V0.5Z" stroke="black"/>
</symbol>

<!-- 35 -->
<symbol id="block-35">
<path d="M1.5 1H50.5L51.5 61L18 77C7.64634 49.9724 3.90199 33.4216 1.5 1Z" stroke="black"/>
</symbol>

<!-- 36 -->
<symbol id="block-36">
<path d="M1.5 1H39.5V35H17V43H2L1.5 1Z" stroke="black"/>
</symbol>

<!-- 27 -->
<symbol id="block-27">
<path d="M1.3391 33.9537H34.5V0.999878L1.49999 0.999998L1.3391 33.9537Z" stroke="black"/>
</symbol>

<!-- 28 -->
<symbol id="block-28">
<path d="M1.3391 33.9537H34.5V0.999878L1.49999 0.999998L1.3391 33.9537Z" stroke="black"/>
</symbol>

<!-- 15 -->
<symbol id="block-15">
<path d="M0.5 0.5L0.500003 21.5H12.5V0.5H0.5Z" stroke="black"/>
</symbol>

<!-- 16 -->
<symbol id="block-16">
<path d="M0.5 0.5L0.500003 21.5H12.5V0.5H0.5Z" stroke="black"/>
</symbol>

<!-- 17 -->
<symbol id="block-17">
<path d="M0.5 12.5H21.5V0.5H0.499985L0.5 12.5Z" stroke="black"/>
</symbol>

<!-- 18 -->
<symbol id="block-18">
<path d="M0.5 12.5H21.5V0.5H0.499985L0.5 12.5Z" stroke="black"/>
</symbol>

<!-- 23 -->
<symbol id="block-23">
<path d="M0.5 35.7472H86.5V1.42456L0.5 1.42457V35.7472Z" stroke="black"/>
</symbol>

<!-- 24 -->
<symbol id="block-24">
<path d="M0.5 51.6124H42.5V1.2435H0.500005L0.5 51.6124Z" stroke="black"/>
</symbol>

<!-- 37 -->
<symbol id="block-37">
<path d="M1.5 26L1 9H17V1H38.5L38 26H1.5Z" stroke="black"/>
</symbol>

<!-- 32 -->
<symbol id="block-32">
<path d="M33.6907 1H72V5.79183C55.4595 15.1327 50.0493 24.087 48.5036 47.8535L31.0764 65C17.4364 48.2194 10.1807 38.651 1 16.4403L33.6907 1Z" stroke="black"/>
</symbol>

<!-- 33 -->
<symbol id="block-33">
<path d="M68.5 3.5V1H129V77H99V84C62.9508 78.1461 39.3609 69.934 1.5 41L17.5 23H49L68.5 3.5Z" stroke="black"/>
</symbol>

<!-- правая часть тц  -->

<!-- 31 -->
<symbol id="block-31">
<path d="M88.9576 38.6453L49.8065 1.1453H2.95752V74.1453H0.957565V84.1453H86.9576V68.1453H88.9576V38.6453Z" stroke="black"/>

</symbol>

<!-- 11 -->
<symbol id="block-11">
<path d="M0.5 12.5H21.5V0.5H0.499985L0.5 12.5Z" stroke="black"/>
</symbol>

<!-- 12 -->
<symbol id="block-12">
<path d="M0.5 12.5H21.5V0.5H0.499985L0.5 12.5Z" stroke="black"/>
</symbol>

<!-- 25 -->
<symbol id="block-25">
<path d="M0.5 51.6124H31.5V1.21239L0.500003 1.21239L0.5 51.6124Z" stroke="black"/>
</symbol>

<!-- 22 -->
<symbol id="block-22">
<path d="M0.5 35.7472V1.42456H31.5V35.7472H16.1921H0.5Z" stroke="black"/>
</symbol>

<!-- 21 -->
<symbol id="block-21">
<path d="M0.5 32.5077H31.5V1.49231H0.5V17V32.5077Z" stroke="black"/>
</symbol>

<!-- 20 -->
<symbol id="block-20">
<path d="M0.5 23.7952L31.5 23.5908V1.2952H0.5V23.7952Z" stroke="black"/>
</symbol>

<!-- 19 -->
<symbol id="block-19">
<path d="M0.5 20.2918H31.5V1.09807L0.500006 1.09808L0.5 20.2918Z" stroke="black"/>
</symbol>

<!-- 30 -->
<symbol id="block-30">
<path d="M74.7937 20.1423V1L0.643058 1.00001L0.643051 62L31.7937 62.1423L74.7937 20.1423Z" stroke="black"/>
</symbol>

<!-- 29 -->
<symbol id="block-29">
<path d="M0.5 35.7472H86.5V1.42456L0.5 1.42457V35.7472Z" stroke="black"/>
</symbol>

<!-- 10 -->
<symbol id="block-10">
<path d="M0.5 67.5H85V0.499998H0.499969L0.5 67.5Z" stroke="black"/>
</symbol>

<!-- 9 -->
<symbol id="block-9">
<path d="M0.500007 166.5L0.5 38.2333L38.2717 0.522624L82.5764 0.499985V29.5H128.5V216.5H44.4695V166.5H0.500007Z" stroke="black"/>
</symbol>

<!-- 13 -->
<symbol id="block-13">
<path d="M0.5 0.5L0.500003 21.5H12.5V0.5H0.5Z" stroke="black"/>
</symbol>

<!-- 14 -->
<symbol id="block-14">
<path d="M0.5 0.5L0.500003 21.5H12.5V0.5H0.5Z" stroke="black"/>
</symbol>
</svg>