<svg width="75" height="62" viewBox="0 0 75 62" fill="none" xmlns="http://www.w3.org/2000/svg">
<line x1="74.5" x2="74.5" y2="20" stroke="black"/>
<line x1="0.5" x2="0.5" y2="61" stroke="black"/>
<path d="M20.2852 33.207H21.0996C21.6113 33.1992 22.0137 33.0645 22.3066 32.8027C22.5996 32.541 22.7461 32.1875 22.7461 31.7422C22.7461 30.7422 22.248 30.2422 21.252 30.2422C20.7832 30.2422 20.4082 30.377 20.127 30.6465C19.8496 30.9121 19.7109 31.2656 19.7109 31.707H18.627C18.627 31.0312 18.873 30.4707 19.3652 30.0254C19.8613 29.5762 20.4902 29.3516 21.252 29.3516C22.0566 29.3516 22.6875 29.5645 23.1445 29.9902C23.6016 30.416 23.8301 31.0078 23.8301 31.7656C23.8301 32.1367 23.709 32.4961 23.4668 32.8438C23.2285 33.1914 22.9023 33.4512 22.4883 33.623C22.957 33.7715 23.3184 34.0176 23.5723 34.3613C23.8301 34.7051 23.959 35.125 23.959 35.6211C23.959 36.3867 23.709 36.9941 23.209 37.4434C22.709 37.8926 22.0586 38.1172 21.2578 38.1172C20.457 38.1172 19.8047 37.9004 19.3008 37.4668C18.8008 37.0332 18.5508 36.4609 18.5508 35.75H19.6406C19.6406 36.1992 19.7871 36.5586 20.0801 36.8281C20.373 37.0977 20.7656 37.2324 21.2578 37.2324C21.7812 37.2324 22.1816 37.0957 22.459 36.8223C22.7363 36.5488 22.875 36.1562 22.875 35.6445C22.875 35.1484 22.7227 34.7676 22.418 34.502C22.1133 34.2363 21.6738 34.0996 21.0996 34.0918H20.2852V33.207ZM30.7969 34.3613C30.7969 35.6309 30.5801 36.5742 30.1465 37.1914C29.7129 37.8086 29.0352 38.1172 28.1133 38.1172C27.2031 38.1172 26.5293 37.8164 26.0918 37.2148C25.6543 36.6094 25.4277 35.707 25.4121 34.5078V33.0605C25.4121 31.8066 25.6289 30.875 26.0625 30.2656C26.4961 29.6562 27.1758 29.3516 28.1016 29.3516C29.0195 29.3516 29.6953 29.6465 30.1289 30.2363C30.5625 30.8223 30.7852 31.7285 30.7969 32.9551V34.3613ZM29.7129 32.8789C29.7129 31.9609 29.584 31.293 29.3262 30.875C29.0684 30.4531 28.6602 30.2422 28.1016 30.2422C27.5469 30.2422 27.1426 30.4512 26.8887 30.8691C26.6348 31.2871 26.5039 31.9297 26.4961 32.7969V34.5312C26.4961 35.4531 26.6289 36.1348 26.8945 36.5762C27.1641 37.0137 27.5703 37.2324 28.1133 37.2324C28.6484 37.2324 29.0449 37.0254 29.3027 36.6113C29.5645 36.1973 29.7012 35.5449 29.7129 34.6543V32.8789Z" fill="black"/>
<line y1="61.5" x2="32" y2="61.5" stroke="black"/>
<line x1="31.6506" y1="61.6423" x2="74.6506" y2="19.6423" stroke="black"/>
<line x1="3.12373e-10" y1="0.5" x2="74" y2="0.5" stroke="black"/>
</svg>
