<svg xmlns="http://www.w3.org/2000/svg" style="display: none;">

<!-- главное очертание ТЦ  -->
<symbol id="main-block">
<path d="M590.5 1.5L1.5 1L22 201.5L141.5 202.5H155.5H172.5H187.5V194H204.5C209.847 250.929 219.899 278.077 250.5 318L271.5 339C317.929 373.058 346.064 381.159 398.169 385.566H590.5V1.5Z" stroke="black"/>
</symbol>

<!-- 1 -->
<symbol id="block-1">
<line x1="75.4552" y1="136.207" x2="60.4552" y2="169.207" stroke="black"/>
<line x1="17" y1="169.5" x2="61" y2="169.5" stroke="black"/>
<line x1="94" y1="136.5" x2="75" y2="136.5" stroke="black"/>
<line x1="93.5" y1="136" x2="93.5" y2="87" stroke="black"/>
<line x1="94" y1="87.5" x2="124" y2="87.5" stroke="black"/>
<line x1="0.497489" y1="0.949957" x2="17.4975" y2="169.95" stroke="black"/>
<path d="M123.5 39V87.5" stroke="black"/>
<line x1="72" y1="39.5" x2="124" y2="39.5" stroke="black"/>
<line x1="72.5" y1="1" x2="72.5" y2="40" stroke="black"/>
<line x1="72" y1="1.5" y2="1.5" stroke="black"/>
</symbol>

<!-- 2 -->
<symbol id="block-2">
<line x1="0.5" y1="22" x2="0.5" stroke="black"/>
<line x1="13" y1="0.5" y2="0.5" stroke="black"/>
<line x1="12.5" y1="22" x2="12.5" stroke="black"/>
<line y1="21.5" x2="12" y2="21.5" stroke="black"/>
</symbol>

<!-- 4 -->
<symbol id="block-4">
<line x1="29.5" y1="49" x2="29.5" y2="25" stroke="black"/>
<line x1="62" y1="49.5" x2="29" y2="49.5" stroke="black"/>
<line x1="0.5" y1="-3.42298e-10" x2="0.5" y2="25" stroke="black"/>
<line x1="1" y1="24.5" x2="30" y2="24.5" stroke="black"/>
<line x1="61.5" y1="50" x2="61.5" y2="1" stroke="black"/>
<line x1="1" y1="0.5" x2="62" y2="0.5" stroke="black"/>
<symbol>

<!-- 18 -->
<symbol id="block-18">
<line x1="32" y1="14.3462" y2="14.3462" stroke="black"/>
<line x1="0.5" x2="0.5" y2="15" stroke="black"/>
<line x1="32" y1="0.5" y2="0.5" stroke="black"/>
<line x1="31.5" y1="15" x2="31.5" y2="1.15385" stroke="black"/>
</symbol>

<!-- 3 -->
<symbol id="block-3">
<line x1="1" y1="36.5" x2="61" y2="36.5" stroke="black"/>
<line x1="61" y1="0.5" x2="1" y2="0.5" stroke="black"/>
<line x1="61.5" x2="61.5" y2="37" stroke="black"/>
<line x1="0.5" y1="37" x2="0.5" stroke="black"/>
<symbol>

<!-- 5 -->
<symbol id="block-5">
<line y1="30.5" x2="46" y2="30.5" stroke="black"/>
<line x1="18" y1="0.5" x2="1.00799e-09" y2="0.5" stroke="black"/>
<line x1="0.5" y1="1" x2="0.5" y2="31" stroke="black"/>
<line x1="17.5064" y1="1.00108" x2="17.4979" y2="5.00106" stroke="black"/>
<line x1="46.5" y1="5" x2="46.5" y2="31" stroke="black"/>
<line x1="18" y1="4.5" x2="47" y2="4.5" stroke="black"/>
</symbol>

<!-- 6 -->
<symbol id="block-6">
<line x1="61" y1="86.5" x2="-1.27315e-10" y2="86.5" stroke="black"/>
<line x1="24.5" x2="24.5" y2="39" stroke="black"/>
<line x1="61.5" y1="1" x2="61.5" y2="87" stroke="black"/>
<line x1="0.5" y1="39" x2="0.5" y2="87" stroke="black"/>
<line x1="25" y1="39.5" y2="39.5" stroke="black"/>
<line x1="25" y1="0.5" x2="62" y2="0.5" stroke="black"/>
</symbol>

<!-- 7 -->
<symbol id="block-7">
<line x1="76.5" x2="76.5" y2="42" stroke="black"/>
<line x1="0.5" y1="1" x2="0.5" y2="87" stroke="black"/>
<line x1="77" y1="0.5" y2="0.5" stroke="black"/>
<line x1="43" y1="86.5" x2="1" y2="86.5" stroke="black"/>
<line x1="76.3482" y1="41.3588" x2="42.3482" y2="74.3588" stroke="black"/>
<line x1="42.5" y1="74" x2="42.5" y2="86" stroke="black"/>
</symbol>

<!-- 8 -->
<symbol id="block-8">
<line y1="-0.5" x2="42" y2="-0.5" transform="matrix(-1 0 0 1 87 0.999992)" stroke="black"/>
<line y1="-0.5" x2="86" y2="-0.5" transform="matrix(-1 0 0 1 86 77)" stroke="black"/>
<line y1="-0.5" x2="77" y2="-0.5" transform="matrix(0 1 1 0 87 0)" stroke="black"/>
<line y1="-0.5" x2="42" y2="-0.5" transform="matrix(0 1 1 0 1 34)" stroke="black"/>
<line y1="-0.5" x2="47.3814" y2="-0.5" transform="matrix(-0.696475 0.717581 0.717581 0.696475 46 0.999992)" stroke="black"/>
<line y1="-0.5" x2="12" y2="-0.5" transform="matrix(-1 1.9514e-09 1.77714e-09 1 13 35)" stroke="black"/>
</symbol>

<!-- 34 -->
<symbol id="block-34">
<path d="M45.5 0.5H0.5V86H88.5V43.5H77L45.5 12.5V0.5Z" stroke="black"/>
</symbol>

<!-- 35 -->
<symbol id="block-35">
<path d="M1.5 1H50.5L51.5 61L18 77C7.64634 49.9724 3.90199 33.4216 1.5 1Z" stroke="black"/>
</symbol>

<!-- 36 -->
<symbol id="block-36">
<path d="M1.5 1H39.5V35H17V43H2L1.5 1Z" stroke="black"/>
</symbol>

<!-- 27 -->
<symbol id="block-27">
<line x1="34" y1="33.4539" y2="33.4539" stroke="black"/>
<line x1="0.5" x2="0.5" y2="34" stroke="black"/>
<line x1="34" y1="0.5" y2="0.5" stroke="black"/>
<line x1="33.5" y1="34" x2="33.5" y2="1.0625" stroke="black"/>
</symbol>

<!-- 28 -->
<symbol id="block-28">
<line x1="34" y1="33.4539" y2="33.4539" stroke="black"/>
<line x1="0.5" x2="0.5" y2="34" stroke="black"/>
<line x1="34" y1="0.5" y2="0.5" stroke="black"/>
<line x1="33.5" y1="34" x2="33.5" y2="1.0625" stroke="black"/>
</symbol>

<!-- 26 -->
<symbol id="block-26">
<path d="M42 61.5987L4.76837e-07 61.5987" stroke="black"/>
<line x1="0.5" x2="0.5" y2="61.5474" stroke="black"/>
<line x1="42" y1="0.5" y2="0.5" stroke="black"/>
<line x1="41.5" y1="62" x2="41.5" y2="1" stroke="black"/>
</symbol>

<!-- 15 -->
<symbol id="block-15">
<line x1="0.5" y1="22" x2="0.5" stroke="black"/>
<line x1="13" y1="0.5" y2="0.5" stroke="black"/>
<line x1="12.5" y1="22" x2="12.5" stroke="black"/>
<line y1="21.5" x2="12" y2="21.5" stroke="black"/>
</symbol>

<!-- 16 -->
<symbol id="block-16">
<line x1="0.5" y1="22" x2="0.5" stroke="black"/>
<line x1="13" y1="0.5" y2="0.5" stroke="black"/>
<line x1="12.5" y1="22" x2="12.5" stroke="black"/>
<line y1="21.5" x2="12" y2="21.5" stroke="black"/>
</symbol>

<!-- 17 -->
<symbol id="block-17">
<line x1="22" y1="12.5" y2="12.5" stroke="black"/>
<line x1="0.5" x2="0.5" y2="13" stroke="black"/>
<line x1="22" y1="0.5" y2="0.5" stroke="black"/>
<line x1="21.5" y1="13" x2="21.5" y2="1" stroke="black"/>
</symbol>

<!-- 23 -->
<symbol id="block-23">
<line x1="87" y1="34.4231" y2="34.4231" stroke="black"/>
<line x1="0.5" x2="0.5" y2="35" stroke="black"/>
<line x1="87" y1="0.5" y2="0.5" stroke="black"/>
<line x1="86.5" y1="35" x2="86.5" y2="1.09375" stroke="black"/>
</symbol>

<!-- 24 -->
<symbol id="block-24">
<line x1="43" y1="50.9" y2="50.9" stroke="black"/>
<line x1="0.5" x2="0.5" y2="51" stroke="black"/>
<line x1="43" y1="0.5" y2="0.5" stroke="black"/>
<line x1="42.5" y1="51" x2="42.5" stroke="black"/>
</symbol>

<!-- 37 -->
<symbol id="block-37">
<path d="M1.5 26L1 9H17V1H38.5L38 26H1.5Z" stroke="black"/>
</symbol>

<!-- 32 -->
<symbol id="block-32">
<path d="M33.6907 1H72V5.79183C55.4595 15.1327 50.0493 24.087 48.5036 47.8535L31.0764 65C17.4364 48.2194 10.1807 38.651 1 16.4403L33.6907 1Z" stroke="black"/>
</symbol>

<!-- 33 -->
<symbol id="block-33">
<path d="M68.5 3.5V1H129V77H99V84C62.9508 78.1461 39.3609 69.934 1.5 41L17.5 23H49L68.5 3.5Z" stroke="black"/>
</symbol>

<!-- 31 -->
<symbol id="block-31">
<line x1="49.3489" y1="0.641885" x2="88.3489" y2="38.6419" stroke="black"/>
<line x1="3" y1="73.5" y2="73.5" stroke="black"/>
<line x1="2" y1="0.5" x2="50" y2="0.5" stroke="black"/>
<path d="M2.49997 0.00675344L2.49995 73" stroke="black"/>
<line x1="0.5" y1="74" x2="0.5" y2="84" stroke="black"/>
<line x1="87" y1="83.5" x2="1" y2="83.5" stroke="black"/>
<line x1="86.5" y1="67" x2="86.5" y2="83" stroke="black"/>
<line x1="86" y1="67.5" x2="89" y2="67.5" stroke="black"/>
<line x1="88.5" y1="38" x2="88.5" y2="67" stroke="black"/>
</symbol>

<!-- <symbol id="block-">
</symbol> -->
<!-- <symbol id="block-">
</symbol> -->
<!-- <symbol id="block-">
</symbol> -->
<!-- <symbol id="block-">
</symbol> -->
<!-- <symbol id="block-">
</symbol> -->
<!-- <symbol id="block-">
</symbol> -->
<!-- <symbol id="block-">
</symbol> -->
<!-- <symbol id="block-">
</symbol> -->
<!-- <symbol id="block-">
</symbol> -->
<!-- <symbol id="block-">
</symbol> -->
<!-- <symbol id="block-">
</symbol> -->
<!-- <symbol id="block-">
</symbol> -->
<!-- <symbol id="block-">
</symbol> -->
<!-- <symbol id="block-">
</symbol> -->
<!-- <symbol id="block-">
</symbol> -->
<!-- <symbol id="block-">
</symbol> -->
<!-- <symbol id="block-">
</symbol> -->
<!-- <symbol id="block-">
</symbol> -->


</svg>